<svg id="Capa_1" enable-background="new 0 0 512 512" height="512" viewBox="0 0 512 512" width="512" xmlns="http://www.w3.org/2000/svg" xmlns:xlink="http://www.w3.org/1999/xlink"><linearGradient id="SVGID_1_" gradientUnits="userSpaceOnUse" x1="256" x2="256" y1="512" y2="0"><stop offset="0" stop-color="#addcff"/><stop offset=".5028" stop-color="#eaf6ff"/><stop offset="1" stop-color="#eaf6ff"/></linearGradient><linearGradient id="SVGID_2_" gradientUnits="userSpaceOnUse" x1="255.999" x2="255.999" y1="407" y2="105"><stop offset="0" stop-color="#00c0ff"/><stop offset="1" stop-color="#5558ff"/></linearGradient><g><g><circle cx="256" cy="256" fill="url(#SVGID_1_)" r="256"/></g><g><g><path d="m255.989 105c-4.91 0-8.883 3.973-8.883 8.883s3.973 8.883 8.883 8.883c73.474 0 133.243 59.769 133.243 133.243 0 4.91 3.973 8.883 8.883 8.883s8.883-3.973 8.883-8.883c0-83.269-67.74-151.009-151.009-151.009zm0 71.063c44.085 0 79.946 35.861 79.946 79.946 0 4.91 3.973 8.883 8.883 8.883s8.883-3.973 8.883-8.883c0-53.878-43.833-97.711-97.712-97.711-4.91 0-8.883 3.973-8.883 8.883s3.974 8.882 8.883 8.882zm0 53.297c14.695 0 26.649 11.954 26.649 26.648 0 4.91 3.973 8.883 8.883 8.883s8.883-3.973 8.883-8.883c0-24.489-19.926-44.414-44.414-44.414-4.91 0-8.883 3.973-8.883 8.883-.001 4.91 3.973 8.883 8.882 8.883zm48.917 65.667c-3.331-3.331-9.23-3.331-12.561 0l-22.381 22.389c-24.749-19.162-43.026-34.256-75.357-75.4l22.363-22.363c3.468-3.468 3.47-9.091 0-12.561l-56.533-56.533c-3.47-3.47-9.091-3.47-12.561 0l-29.893 29.893c-15.094 15.103-17.289 38.88-5.214 56.55 24.627 36.052 65.858 96.384 162.225 162.234 17.681 12.075 41.451 9.862 56.55-5.222l29.893-29.893c3.47-3.47 3.47-9.091 0-12.561z" fill="url(#SVGID_2_)"/></g></g></g></svg>