<svg width="25" height="23" viewBox="0 0 25 23" fill="none" xmlns="http://www.w3.org/2000/svg">
<path d="M21.8749 3.68727H19.7157L18.1524 0.562164H6.84608L5.28426 3.68881L3.12813 3.69265C1.40919 3.69572 0.00987809 5.09651 0.00839381 6.81622L0 19.312C0 21.0355 1.40156 22.4379 3.12511 22.4379H21.8749C23.5985 22.4379 25.0001 21.0363 25.0001 19.3128V6.81233C25 5.08884 23.5984 3.68727 21.8749 3.68727ZM12.4996 18.5315C9.05329 18.5315 6.2494 15.7276 6.2494 12.2813C6.2494 8.83493 9.05329 6.03104 12.4996 6.03104C15.9459 6.03104 18.7498 8.83493 18.7498 12.2813C18.7498 15.7276 15.9459 18.5315 12.4996 18.5315Z" fill="white"/>
</svg>
